#!OML:ASF H:\Terrain\Patient Classification 1\Animal1\Tuesday\Animal1.ASF
:FULLY-SPECIFIED
:DEGREES
1501
root 9.18382 16.0221 -4.18539 -162.714 -181.442 179.744
lowerback 23.063 1.67304 2.46524
upperback 12.3032 2.617 0.679394
thorax 0.717196 1.3999 -1.23275
lowerneck -1.77148 15.4677 3.92871
upperneck -19.2583 19.7909 -13.9714
head -3.65143 10.5858 -5.12122
rclavicle -9.54166e-015 5.56597e-015
rhumerus -0.352509 20.0131 -5.89689
rradius 30.8041
rwrist -47.2052
rhand 13.8042 16.2644
rfingers 7.12502
rthumb 38.7249 -9.33389
lclavicle -9.54166e-015 5.56597e-015
lhumerus 19.3996 -49.7285 -8.25297
lradius 118.065
lwrist 65.8927
lhand 50.11 35.4935
lfingers 7.12502
lthumb 70.0235 31.1536
rfemur -40.145 -2.25455 10.8421
rtibia 38.1749
rfoot -2.82165 -22.3913
rtoes -18.6187
lfemur -39.8929 0.459826 -5.10662
ltibia 29.2731
lfoot -7.99394 0.606126
ltoes -20.5339
1502
root 9.17473 16.0206 -4.1858 -162.642 -181.306 179.607
lowerback 23.0253 1.64495 2.64052
upperback 12.3448 2.60634 0.507376
thorax 0.79996 1.41057 -1.51062
lowerneck -1.86595 15.4823 4.1038
upperneck -19.4052 19.814 -13.953
head -3.66353 10.5874 -5.13824
rclavicle -2.70347e-014 1.66979e-014
rhumerus -0.466502 20.9646 -5.90093
rradius 31.2682
rwrist -48.2482
rhand 13.9468 16.3537
rfingers 7.12502
rthumb 38.8594 -9.2065
lclavicle -2.70347e-014 1.66979e-014
lhumerus 18.4697 -50.7786 -8.94473
lradius 118.127
lwrist 66.0442
lhand 50.6813 37.4761
lfingers 7.12502
lthumb 70.3911 31.9209
rfemur -40.2639 -1.98787 10.9815
rtibia 38.1646
rfoot -2.8572 -22.4859
rtoes -18.214
lfemur -39.8976 0.788486 -5.00828
ltibia 29.2375
lfoot -7.98574 0.509561
ltoes -22.2725
1503
root 9.16748 16.0237 -4.18572 -162.573 -181.243 179.616
lowerback 23.1468 1.72527 2.30145
upperback 12.2236 2.653 0.666872
thorax 0.581562 1.40647 -1.1667
lowerneck -1.61338 15.4685 4.11583
upperneck -19.5289 19.7723 -14.1113
head -3.72429 10.5828 -5.21565
rclavicle 1.98785e-014 8.34896e-015
rhumerus -0.475534 22.5308 -5.32022
rradius 31.8649
rwrist -49.2907
rhand 13.9964 16.5335
rfingers 7.12502
rthumb 38.9061 -9.01339
lclavicle 1.98785e-014 8.34896e-015
lhumerus 17.4636 -52.268 -9.05326
lradius 118.346
lwrist 65.7945
lhand 52.2953 38.6897
lfingers 7.12502
lthumb 71.3764 29.4443
rfemur -40.3346 -1.81823 10.9631
rtibia 38.15
rfoot -2.69801 -22.6044
rtoes -18.5558
lfemur -39.9363 0.991802 -5.04682
ltibia 29.2203
lfoot -8.02263 0.255992
ltoes -21.3696
1504
root 9.16735 16.0289 -4.1843 -162.501 -181.241 179.644
lowerback 23.1349 1.69968 2.27021
upperback 12.2333 2.61346 0.640435
thorax 0.596392 1.38665 -1.16816
lowerneck -2.03252 15.4658 4.19803
upperneck -19.2039 19.7796 -14.0639
head -3.55526 10.5629 -5.15015
rclavicle -1.59028e-015 4.37326e-015
rhumerus -0.679193 23.0721 -5.31772
rradius 32.3135
rwrist -49.5501
rhand 14.785 16.6341
rfingers 7.12502
rthumb 39.6493 -8.69679
lclavicle -1.59028e-015 4.37326e-015
lhumerus 16.5776 -53.7843 -9.34316
lradius 118.595
lwrist 64.9146
lhand 55.3138 39.2628
lfingers 7.12502
lthumb 72.9694 22.0283
rfemur -40.3752 -1.8301 10.9369
rtibia 38.1156
rfoot -2.4701 -22.6252
rtoes -19.1416
lfemur -39.9974 1.08862 -5.11696
ltibia 29.2331
lfoot -8.14572 0.118612
ltoes -20.0134
1505
root 9.16602 16.0291 -4.18448 -162.41 -181.125 179.639
lowerback 23.0444 1.73086 2.21862
upperback 12.2926 2.63797 0.597613
thorax 0.706369 1.39937 -1.18519
lowerneck -2.3749 15.4324 4.29992
upperneck -19.0027 19.7396 -14.0378
head -3.4357 10.5241 -5.11089
rclavicle 3.18055e-014 -1.98785e-014
rhumerus -1.1106 23.44 -5.37896
rradius 32.9413
rwrist -49.8305
rhand 15.5117 16.9512
rfingers 7.12502
rthumb 40.3331 -8.17348
lclavicle 3.18055e-014 -1.98785e-014
lhumerus 15.6188 -55.4929 -9.48925
lradius 118.857
lwrist 63.5351
lhand 58.9205 42.466
lfingers 7.12502
lthumb 74.331 13.8143
rfemur -40.4933 -1.79647 10.9438
rtibia 38.0569
rfoot -2.45431 -22.5654
rtoes -19.037
lfemur -40.0526 1.21111 -5.12865
ltibia 29.2542
lfoot -8.17529 0.0536155
ltoes -18.8113
1506
root 9.16491 16.0255 -4.18116 -162.378 -180.92 179.551
lowerback 23.0001 1.83827 2.13804
upperback 12.3633 2.75575 0.645725
thorax 0.80361 1.45271 -1.10973
lowerneck -2.28689 15.3306 4.18757
upperneck -19.2391 19.5977 -13.9898
head -3.55035 10.4648 -5.11451
rclavicle 1.66979e-014 5.96354e-015
rhumerus -1.58791 24.6965 -4.94927
rradius 33.9914
rwrist -51.1576
rhand 16.5524 17.0518
rfingers 7.12502
rthumb 41.3109 -7.76502
lclavicle 1.66979e-014 5.96354e-015
lhumerus 14.6067 -57.3564 -9.41719
lradius 119.03
lwrist 61.9493
lhand 60.7556 43.6163
lfingers 7.12502
lthumb 74.748 8.499
rfemur -40.5684 -1.69005 11.0288
rtibia 38.0003
rfoot -2.38208 -22.4448
rtoes -19.3445
lfemur -40.0183 1.37129 -5.05343
ltibia 29.2806
lfoot -8.17326 0.182776
ltoes -19.6477
1507
root 9.16439 16.0263 -4.1745 -162.376 -180.739 179.411
lowerback 23.0185 1.93429 2.16043
upperback 12.3887 2.88073 0.709545
thorax 0.824963 1.51267 -1.08055
lowerneck -2.24141 15.166 3.95748
upperneck -19.297 19.3915 -13.7633
head -3.64187 10.3636 -5.04087
rclavicle 1.59028e-014 3.97569e-015
rhumerus -2.07392 26.3192 -4.46304
rradius 35.2028
rwrist -52.4253
rhand 18.0722 16.6292
rfingers 7.12502
rthumb 42.7352 -7.70962
lclavicle 1.59028e-014 3.97569e-015
lhumerus 13.6834 -59.2216 -9.43422
lradius 119.038
lwrist 60.5209
lhand 61.3107 41.4352
lfingers 7.12502
lthumb 74.8337 4.30029
rfemur -40.5744 -1.55718 11.1646
rtibia 37.9547
rfoot -2.33073 -22.3562
rtoes -19.5424
lfemur -39.936 1.53472 -4.93574
ltibia 29.2988
lfoot -8.19831 0.491621
ltoes -22.0762
1508
root 9.16343 16.0337 -4.17092 -162.378 -180.721 179.437
lowerback 23.1382 1.98632 2.10698
upperback 12.3347 2.94165 0.778623
thorax 0.702071 1.53555 -0.995948
lowerneck -2.2566 15.001 3.77082
upperneck -19.1373 19.1879 -13.5491
head -3.65033 10.2549 -4.95377
rclavicle 2.94201e-014 2.38542e-015
rhumerus -2.70628 28.0994 -4.09665
rradius 36.5888
rwrist -53.0834
rhand 18.7933 16.2478
rfingers 7.12502
rthumb 43.4094 -7.85185
lclavicle 2.94201e-014 2.38542e-015
lhumerus 12.9168 -61.0995 -9.54281
lradius 118.818
lwrist 59.26
lhand 62.3777 41.28
lfingers 7.12502
lthumb 74.9434 0.213603
rfemur -40.5235 -1.61542 11.1742
rtibia 37.8939
rfoot -2.72408 -22.3118
rtoes -18.3229
lfemur -39.8676 1.47958 -4.94055
ltibia 29.2847
lfoot -8.25311 0.570531
ltoes -21.0579
1509
root 9.16282 16.0392 -4.1699 -162.351 -180.82 179.478
lowerback 23.1788 1.98645 2.08623
upperback 12.2979 2.94276 0.872306
thorax 0.634899 1.53084 -0.887189
lowerneck -2.27221 14.9098 3.6038
upperneck -18.9264 19.0765 -13.4371
head -3.62162 10.1968 -4.89017
rclavicle 0 -6.36111e-015
rhumerus -3.43027 30.3911 -3.62776
rradius 38.392
rwrist -54.1268
rhand 20.0796 15.7926
rfingers 7.12502
rthumb 44.6093 -7.8592
lclavicle 0 -6.36111e-015
lhumerus 11.7164 -63.0095 -9.05659
lradius 118.234
lwrist 57.7285
lhand 63.9063 42.0181
lfingers 7.12502
lthumb 74.9725 -4.7378
rfemur -40.4755 -1.79479 11.1921
rtibia 37.8168
rfoot -3.0518 -22.2393
rtoes -17.2825
lfemur -39.8698 1.32206 -4.91084
ltibia 29.2364
lfoot -8.35602 0.437426
ltoes -18.4951
